<?xml version="1.0" standalone="no"?>
<!DOCTYPE svg PUBLIC "-//W3C//DTD SVG 20010904//EN"
 "http://www.w3.org/TR/2001/REC-SVG-20010904/DTD/svg10.dtd">
<svg version="1.0" xmlns="http://www.w3.org/2000/svg"
 width="45.000000pt" height="45.000000pt" viewBox="0 0 512.000000 512.000000"
 preserveAspectRatio="xMidYMid meet" fill="#39B54A">
<metadata>
Created by potrace 1.15, written by Peter Selinger 2001-2017
</metadata>
<g transform="translate(0.000000,512.000000) scale(0.100000,-0.100000)"
fill="#39B54A" stroke="none">
<path d="M3463 5085 c3 -11 8 -29 11 -40 3 -11 10 -61 16 -112 27 -247 -51
-531 -215 -772 -30 -44 -51 -81 -47 -81 4 0 23 24 43 53 20 28 41 51 48 49 7
-1 19 4 27 13 9 8 12 15 7 15 -5 0 -14 -5 -21 -12 -16 -16 -15 3 2 24 7 10 17
14 21 10 5 -4 5 -2 1 5 -4 7 11 47 33 90 40 78 54 92 27 28 -16 -38 -13 -47 4
-14 6 11 13 43 15 71 4 44 16 85 44 138 4 8 8 36 10 61 1 26 5 60 9 75 7 26 6
229 -1 329 -1 22 -11 51 -21 65 -15 21 -17 22 -13 5z"/>
<path d="M3616 4845 c-3 -10 -4 -20 -1 -23 3 -3 5 1 5 8 0 11 3 11 12 2 10
-10 10 -15 -2 -23 -13 -10 -13 -10 1 -6 19 6 64 -56 53 -74 -4 -8 -3 -9 4 -5
13 8 105 -143 97 -161 -2 -7 1 -12 7 -10 6 1 13 -4 16 -12 3 -8 0 -11 -7 -7
-7 5 -8 1 -4 -10 4 -12 8 -14 11 -6 7 23 32 -8 32 -42 0 -21 3 -27 9 -18 6 11
9 10 13 -5 3 -10 9 -26 13 -35 5 -13 2 -16 -13 -13 -16 3 -19 -1 -14 -18 5
-20 6 -20 13 -1 7 19 8 19 9 -1 1 -19 2 -19 9 -1 10 25 24 5 15 -21 -4 -13 -3
-15 4 -4 11 15 27 -2 18 -18 -4 -5 -2 -11 3 -13 15 -6 92 -171 86 -185 -7 -21
15 -59 25 -43 5 9 10 6 15 -11 4 -13 15 -43 26 -67 11 -25 17 -53 14 -65 -4
-14 -3 -18 3 -9 11 15 74 -116 76 -158 1 -15 5 -26 10 -23 4 3 5 -5 1 -18 -5
-19 -4 -21 5 -9 9 12 10 9 6 -15 -5 -22 -4 -26 4 -15 7 11 10 -2 10 -48 0 -45
-3 -61 -12 -56 -6 4 -8 3 -5 -3 15 -24 -84 -573 -112 -623 -5 -9 -12 -31 -16
-50 -17 -83 -93 -309 -138 -412 -8 -18 -25 -58 -37 -88 -75 -184 -268 -558
-292 -568 -4 -2 -8 -9 -8 -15 0 -7 -14 -30 -30 -51 -17 -22 -30 -44 -30 -49 0
-6 -18 -34 -40 -63 -22 -29 -40 -60 -40 -69 0 -8 -4 -15 -9 -15 -5 0 -32 -32
-61 -70 -28 -39 -55 -68 -60 -65 -6 4 -7 -1 -3 -11 5 -13 3 -16 -10 -11 -9 3
-19 1 -23 -5 -4 -7 -3 -8 4 -4 7 4 12 3 12 -3 0 -5 -5 -13 -10 -16 -6 -4 -21
-23 -34 -43 -13 -21 -47 -62 -74 -92 -28 -30 -51 -58 -52 -61 0 -8 -328 -337
-345 -347 -11 -6 -95 -78 -161 -137 -12 -11 -32 -27 -44 -35 -12 -8 -48 -35
-80 -60 -95 -75 -113 -88 -215 -155 -54 -36 -102 -65 -107 -65 -4 0 -8 -4 -8
-9 0 -5 -10 -13 -22 -17 -13 -4 -57 -28 -98 -53 -41 -26 -93 -55 -115 -66 -22
-10 -42 -21 -45 -24 -9 -12 -255 -129 -297 -141 -24 -7 -43 -16 -43 -20 0 -4
-12 -10 -26 -13 l-27 -5 7 72 c4 39 9 98 10 131 2 33 6 79 10 103 5 23 4 42
-1 42 -12 0 -36 -248 -31 -320 l3 -55 100 -12 c55 -6 199 -16 320 -22 621 -27
1123 63 1535 275 187 97 290 173 456 339 257 256 417 573 514 1016 79 361 91
786 34 1174 -54 366 -175 788 -330 1143 -32 75 -41 97 -42 102 -1 13 -224 443
-259 500 -22 36 -42 70 -44 75 -10 25 -101 173 -122 199 -21 26 -24 27 -31 11z"/>
<path d="M1207 4700 c-47 -15 -111 -61 -138 -99 -112 -156 5 -382 198 -381 99
1 178 53 224 147 17 35 20 57 17 111 -6 94 -46 158 -123 197 -60 30 -132 40
-178 25z m108 -12 c61 -20 122 -54 132 -73 6 -11 18 -35 28 -54 44 -84 19
-212 -53 -271 -40 -33 -65 -41 -39 -12 20 22 21 32 5 32 -6 0 -8 -3 -5 -7 4
-3 -1 -15 -10 -26 -10 -10 -17 -22 -15 -26 5 -10 -39 -19 -100 -20 -35 -1 -58
3 -58 10 0 5 -4 8 -8 5 -5 -3 -25 6 -46 20 -29 20 -36 30 -32 47 3 12 3 16 0
10 -3 -7 -9 -13 -14 -13 -13 0 -44 53 -43 73 1 9 -2 15 -6 12 -18 -10 -23 84
-7 117 9 17 16 35 16 40 0 5 12 27 27 49 19 29 44 49 87 70 64 30 91 33 141
17z"/>
<path d="M1299 3582 c-46 -41 -47 -92 -1 -133 67 -60 152 -20 152 71 0 40 -37
79 -81 86 -31 5 -42 1 -70 -24z m103 -2 c23 -18 48 -67 28 -55 -5 3 -12 0 -16
-6 -4 -8 -3 -9 5 -5 21 13 23 -23 3 -49 -12 -14 -23 -26 -26 -26 -3 0 -13 -2
-21 -5 -8 -4 -23 0 -32 7 -12 10 -15 10 -9 2 11 -20 2 -16 -27 11 -23 21 -33
48 -27 69 4 13 7 27 9 38 0 6 8 8 17 5 8 -3 12 -2 9 4 -6 10 26 28 51 29 6 1
23 -8 36 -19z"/>
<path d="M2415 3470 c-60 -32 -139 -71 -175 -86 -36 -15 -68 -33 -72 -38 -4
-6 -8 -8 -8 -4 0 4 -48 -14 -107 -38 -60 -25 -141 -59 -181 -75 -81 -33 -235
-112 -304 -155 -77 -48 -183 -118 -188 -124 -3 -3 -36 -29 -75 -58 -83 -63
-208 -183 -278 -267 -27 -33 -53 -62 -56 -65 -11 -9 -127 -192 -155 -245 -78
-150 -173 -452 -149 -476 8 -8 13 -7 18 2 6 8 4 10 -5 4 -10 -6 -12 -2 -6 16
3 13 16 65 27 114 12 50 27 104 34 120 7 17 23 53 34 82 30 76 100 213 127
249 13 17 24 36 24 43 0 7 4 10 9 7 5 -3 11 4 15 17 3 12 24 42 46 67 22 25
40 48 40 51 0 3 14 21 31 39 25 26 33 30 41 19 7 -11 8 -9 4 5 -5 14 13 37 75
97 45 44 87 79 94 79 6 0 20 9 29 19 10 11 24 17 31 15 7 -3 16 -1 20 5 4 7
-1 9 -12 5 -12 -4 -10 1 7 15 14 11 32 26 40 33 23 20 99 68 106 68 4 0 12 6
18 14 18 21 126 79 126 66 0 -6 5 -8 11 -4 6 3 15 0 20 -7 7 -11 9 -11 9 -1 0
7 -10 16 -21 20 -19 7 -15 11 32 32 30 13 57 26 62 28 4 2 4 -4 0 -14 -6 -16
-5 -17 9 -4 9 8 12 17 7 19 -10 3 35 27 105 55 46 19 47 19 44 5 -2 -6 4 -14
12 -16 13 -4 13 -3 0 6 -13 10 -13 11 0 11 12 0 12 2 2 9 -11 6 -8 10 10 14
12 3 27 6 31 6 5 0 14 6 20 14 7 8 24 17 39 21 14 3 34 9 44 13 12 4 15 3 10
-5 -4 -8 -2 -10 8 -6 8 3 12 12 9 20 -4 10 0 12 11 8 9 -4 16 -1 16 6 0 7 8
10 19 7 12 -3 27 3 37 14 9 10 21 16 25 13 5 -3 9 -1 9 5 0 5 12 8 28 5 21 -3
24 -2 12 7 -12 8 -8 9 15 5 17 -3 24 -3 17 0 -15 7 -6 24 14 24 9 0 12 -5 8
-12 -4 -7 -3 -8 5 -4 6 4 9 11 6 15 -4 8 44 36 58 33 4 -1 7 3 7 9 0 6 9 9 20
6 11 -3 18 -1 15 4 -6 9 41 25 65 21 13 -2 13 -1 1 7 -11 7 -7 12 16 25 17 8
34 12 38 8 5 -4 5 -1 1 6 -10 17 -7 17 -131 -48z"/>
<path d="M865 3498 c-46 -25 -74 -62 -81 -103 -18 -123 123 -203 218 -124 80
65 67 178 -24 225 -32 17 -85 18 -113 2z"/>
<path d="M2748 2834 c-66 -24 -126 -41 -132 -40 -6 2 -7 1 -3 -2 9 -4 -67 -42
-85 -42 -6 0 -4 7 3 17 13 15 12 15 -10 4 -13 -7 -25 -21 -28 -31 -2 -9 -20
-24 -39 -34 -43 -20 -55 -20 -30 -1 11 8 15 15 9 15 -5 0 -18 -9 -28 -20 -10
-11 -14 -20 -9 -20 5 0 -9 -11 -31 -25 -23 -14 -48 -22 -60 -19 -12 3 -15 2
-8 -3 8 -6 1 -16 -23 -32 -19 -13 -34 -27 -34 -32 0 -5 -6 -9 -12 -9 -16 0
-85 -47 -116 -78 -13 -13 -28 -20 -35 -16 -7 4 -9 4 -6 0 4 -4 -32 -44 -79
-89 -47 -45 -97 -95 -111 -111 -14 -16 -45 -50 -68 -75 -24 -25 -43 -50 -43
-54 0 -5 -6 -5 -12 -1 -7 4 -10 4 -6 -1 4 -4 -5 -24 -21 -44 -15 -20 -34 -47
-41 -61 -7 -14 -19 -29 -27 -33 -7 -5 -28 -33 -46 -64 -18 -30 -42 -71 -55
-91 -13 -21 -28 -49 -35 -64 -6 -16 -14 -28 -18 -28 -3 0 -14 -18 -24 -40 -10
-22 -22 -37 -26 -34 -5 3 -6 -1 -4 -8 7 -17 -59 -150 -69 -141 -4 4 -4 0 -1
-9 4 -9 2 -19 -4 -23 -6 -3 -11 -15 -11 -25 0 -25 -47 -113 -52 -98 -3 7 -7 5
-11 -6 -4 -11 -3 -15 4 -10 8 4 9 -1 4 -16 -4 -12 -15 -50 -25 -84 -28 -96
-74 -221 -83 -224 -4 -2 -4 -8 -1 -13 3 -6 -3 -40 -15 -77 -25 -81 -52 -186
-57 -227 -2 -16 -11 -59 -20 -95 -30 -129 -27 -110 -39 -230 -3 -36 -8 -73
-11 -82 -3 -10 -1 -18 4 -18 8 0 26 118 27 175 0 11 3 22 6 25 3 3 13 50 23
105 19 113 45 222 88 375 33 120 116 370 127 385 4 6 16 33 26 60 21 60 133
291 171 355 15 25 36 61 46 80 33 58 82 134 94 145 6 6 21 26 34 45 68 101
264 312 370 398 30 25 57 48 60 52 3 4 30 24 60 44 30 19 74 50 98 66 23 17
86 54 140 82 53 27 102 54 107 58 6 4 21 11 35 15 14 4 70 25 125 45 141 54
137 53 165 57 14 2 29 8 34 13 18 18 -37 5 -156 -36z"/>
<path d="M2864 2829 c-32 -18 -77 -43 -99 -57 -103 -65 -339 -259 -393 -324
-15 -18 -34 -40 -42 -48 -50 -54 -91 -103 -135 -160 -27 -36 -52 -67 -56 -70
-9 -7 -139 -207 -162 -250 -10 -19 -26 -46 -34 -59 -64 -100 -230 -484 -247
-572 -2 -8 -8 -27 -15 -44 -38 -91 -137 -514 -127 -539 2 -6 5 -1 5 11 1 12 6
25 11 28 6 4 8 15 5 26 -4 10 -3 19 2 19 4 0 8 12 9 28 1 30 7 61 23 107 6 17
18 67 28 112 10 46 22 83 26 83 5 0 5 4 2 10 -5 9 36 144 56 182 5 9 11 32 14
50 3 18 10 34 15 36 5 2 7 9 4 17 -3 7 6 35 20 62 22 41 26 44 27 23 1 -21 2
-22 6 -5 3 11 9 24 14 30 5 5 9 16 8 25 0 8 -4 5 -10 -9 -5 -13 -12 -22 -15
-19 -7 8 32 107 66 170 28 49 43 54 19 5 -10 -22 -10 -22 6 -2 10 12 14 29 10
43 -4 17 -2 22 6 16 7 -4 9 -3 5 4 -9 15 33 94 47 85 7 -4 8 0 4 11 -9 24 2
42 15 25 8 -11 9 -10 4 4 -7 21 3 49 15 41 5 -3 6 2 3 10 -3 9 -2 16 4 16 5 0
15 14 22 30 7 18 19 29 28 28 8 -2 17 4 19 12 4 13 3 13 -6 0 -17 -24 -14 6 5
41 9 18 21 29 29 25 7 -2 19 3 27 12 12 15 11 16 -4 3 -24 -18 -23 -6 3 35 11
19 25 32 30 28 5 -3 8 -2 7 3 -2 6 20 47 40 73 1 2 8 -2 13 -10 9 -13 10 -12
5 2 -3 10 2 24 10 33 9 8 12 15 7 15 -4 0 0 5 10 11 9 5 17 17 17 24 0 8 5 15
11 15 5 0 7 -5 3 -12 -4 -7 -3 -8 5 -4 6 4 9 12 6 17 -3 5 19 34 49 66 31 31
56 62 56 70 0 7 6 13 13 13 8 0 22 9 32 20 10 11 23 17 29 13 6 -3 8 -3 5 1
-10 11 39 56 55 50 8 -3 19 3 26 15 6 12 8 21 5 21 -3 0 3 8 13 18 9 11 20 17
25 15 4 -2 7 1 7 7 0 6 5 8 10 5 6 -3 10 -2 10 3 0 5 23 28 51 52 46 39 53 41
77 31 24 -10 25 -10 9 3 -16 13 -16 14 7 30 14 9 28 16 31 16 3 0 19 10 34 21
17 13 34 18 42 14 8 -5 10 -4 5 3 -9 16 -3 15 42 -3 33 -13 35 -13 18 0 -11 8
-27 15 -35 15 -10 1 -7 6 9 15 50 28 1 14 -56 -16z"/>
<path d="M647 1753 c-12 -117 -8 -307 8 -430 16 -121 72 -357 99 -415 8 -18
27 -71 42 -118 15 -47 67 -161 114 -255 125 -247 154 -298 158 -279 2 9 0 19
-6 23 -5 3 -27 39 -47 79 -21 40 -42 75 -47 78 -4 3 -6 10 -3 15 4 5 1 9 -4 9
-6 0 -11 6 -11 14 0 8 -16 43 -36 78 -20 34 -39 81 -44 103 -4 22 -9 31 -10
20 -1 -18 -2 -18 -11 3 -6 17 -5 30 6 45 8 12 15 26 15 32 0 5 -5 3 -11 -5 -9
-12 -10 -11 -6 7 4 16 1 20 -11 16 -12 -5 -14 -2 -9 13 7 18 6 18 -7 1 -12
-15 -15 -12 -30 38 -10 30 -15 64 -11 77 4 15 3 19 -3 10 -7 -10 -12 -6 -19
15 -6 15 -16 44 -22 63 -18 49 -30 98 -37 145 -4 22 -10 48 -16 58 -5 9 -6 22
-3 28 4 5 2 15 -3 22 -22 26 -36 411 -19 525 4 29 4 52 -1 52 -5 0 -12 -30
-15 -67z"/>
</g>
</svg>
